{"asset":{"generator":"Khronos glTF Blender I/O v3.6.27","version":"2.0"},"extensionsUsed":["KHR_materials_clearcoat","KHR_materials_transmission"],"scene":0,"scenes":[{"name":"Scene","nodes":[10]}],"nodes":[{"mesh":0,"name":"Honda_Civic_Body_Black_MAT_0"},{"mesh":1,"name":"Honda_Civic_Body_Body_MAT_0"},{"mesh":2,"name":"Honda_Civic_Body_Glass_02_MAT_0"},{"mesh":3,"name":"Honda_Civic_Body_Glass_MAT_0"},{"mesh":4,"name":"Honda_Civic_Body_Mirror_MAT_0"},{"mesh":5,"name":"Honda_Civic_Body_Silver_MAT_0"},{"children":[0,1,2,3,4,5],"name":"Honda_Civic_Body"},{"children":[6],"name":"Honda_Civic","rotation":[-0.70710688829422,0,0,0.7071066498756409],"scale":[100,99.99999237060547,99.99999237060547],"translation":[0,1.458299160003662,0]},{"children":[7],"name":"RootNode"},{"children":[8],"name":"08e997bddb014618bc95d9aa20da451f.fbx","rotation":[0.70710688829422,0,0,0.7071066498756409],"scale":[0.009999999776482582,0.010000000707805157,0.010000000707805157]},{"children":[9],"name":"Sketchfab_model","rotation":[-0.70710688829422,0,0,0.7071066498756409]}],"materials":[{"doubleSided":true,"name":"Black_MAT","pbrMetallicRoughness":{"baseColorFactor":[0.002750999992713332,0.002750999992713332,0.002750999992713332,1],"metallicFactor":0,"roughnessFactor":0.8999999761581421}},{"doubleSided":true,"extensions":{"KHR_materials_clearcoat":{"clearcoatFactor":1,"clearcoatRoughnessFactor":0.03999999910593033}},"name":"Body_MAT","pbrMetallicRoughness":{"baseColorTexture":{"index":0},"roughnessFactor":0.800000011920929}},{"alphaMode":"BLEND","doubleSided":true,"extensions":{"KHR_materials_clearcoat":{"clearcoatFactor":1,"clearcoatRoughnessFactor":0.03999999910593033},"KHR_materials_transmission":{"transmissionFactor":0.699999988079071}},"name":"Glass_02_MAT","pbrMetallicRoughness":{"baseColorFactor":[0.800000011920929,0.07563038915395737,0,0.30000001192092896],"metallicFactor":0,"roughnessFactor":0.07948216795921326}},{"alphaMode":"BLEND","doubleSided":true,"extensions":{"KHR_materials_transmission":{"transmissionFactor":0.9800481200218201}},"name":"Glass_MAT","pbrMetallicRoughness":{"baseColorFactor":[0.6466630101203918,0.7135530114173889,0.800000011920929,0.25],"metallicFactor":0,"roughnessFactor":0.10000000149011612}},{"doubleSided":true,"name":"Mirror_MAT","pbrMetallicRoughness":{"roughnessFactor":0.019999999552965164}},{"doubleSided":true,"extensions":{"KHR_materials_clearcoat":{"clearcoatFactor":1,"clearcoatRoughnessFactor":0.03999999910593033}},"name":"Silver_MAT","pbrMetallicRoughness":{"baseColorFactor":[0.800000011920929,0.800000011920929,0.800000011920929,1],"roughnessFactor":0.20000000298023224}}],"meshes":[{"name":"Honda_Civic_Body_Black_MAT_0","primitives":[{"attributes":{"POSITION":0,"NORMAL":1,"TEXCOORD_0":2,"TEXCOORD_1":3,"TEXCOORD_2":4,"TEXCOORD_3":5,"TEXCOORD_4":6,"TEXCOORD_5":7,"TEXCOORD_6":8,"TEXCOORD_7":9},"indices":10,"material":0}]},{"name":"Honda_Civic_Body_Body_MAT_0","primitives":[{"attributes":{"POSITION":11,"NORMAL":12,"TEXCOORD_0":13,"TEXCOORD_1":14,"TEXCOORD_2":15,"TEXCOORD_3":16,"TEXCOORD_4":17,"TEXCOORD_5":18,"TEXCOORD_6":19,"TEXCOORD_7":20},"indices":21,"material":1}]},{"name":"Honda_Civic_Body_Glass_02_MAT_0","primitives":[{"attributes":{"POSITION":22,"NORMAL":23,"TEXCOORD_0":24,"TEXCOORD_1":25,"TEXCOORD_2":26,"TEXCOORD_3":27,"TEXCOORD_4":28,"TEXCOORD_5":29,"TEXCOORD_6":30,"TEXCOORD_7":31},"indices":32,"material":2}]},{"name":"Honda_Civic_Body_Glass_MAT_0","primitives":[{"attributes":{"POSITION":33,"NORMAL":34,"TEXCOORD_0":35,"TEXCOORD_1":36,"TEXCOORD_2":37,"TEXCOORD_3":38,"TEXCOORD_4":39,"TEXCOORD_5":40,"TEXCOORD_6":41,"TEXCOORD_7":42},"indices":43,"material":3}]},{"name":"Honda_Civic_Body_Mirror_MAT_0","primitives":[{"attributes":{"POSITION":44,"NORMAL":45,"TEXCOORD_0":46,"TEXCOORD_1":47,"TEXCOORD_2":48,"TEXCOORD_3":49,"TEXCOORD_4":50,"TEXCOORD_5":51,"TEXCOORD_6":52,"TEXCOORD_7":53},"indices":54,"material":4}]},{"name":"Honda_Civic_Body_Silver_MAT_0","primitives":[{"attributes":{"POSITION":55,"NORMAL":56,"TEXCOORD_0":57,"TEXCOORD_1":58,"TEXCOORD_2":59,"TEXCOORD_3":60,"TEXCOORD_4":61,"TEXCOORD_5":62,"TEXCOORD_6":63,"TEXCOORD_7":64},"indices":65,"material":5}]}],"textures":[{"sampler":0,"source":0}],"images":[{"bufferView":22,"mimeType":"image/png","name":"Image_0"}],"accessors":[{"bufferView":0,"componentType":5126,"count":65829,"max":[0.8255070447921753,1.8244880437850952,1.255706787109375],"min":[-0.8233652710914612,-2.0546326637268066,0.09358645975589752],"type":"VEC3"},{"bufferView":1,"componentType":5126,"count":65829,"type":"VEC3"},{"bufferView":2,"componentType":5126,"count":65829,"type":"VEC2"},{"bufferView":3,"componentType":5126,"count":65829,"type":"VEC2"},{"bufferView":4,"componentType":5126,"count":65829,"type":"VEC2"},{"bufferView":5,"componentType":5126,"count":65829,"type":"VEC2"},{"bufferView":6,"componentType":5126,"count":65829,"type":"VEC2"},{"bufferView":7,"componentType":5126,"count":65829,"type":"VEC2"},{"bufferView":8,"componentType":5126,"count":65829,"type":"VEC2"},{"bufferView":9,"componentType":5126,"count":65829,"type":"VEC2"},{"bufferView":10,"componentType":5125,"count":209481,"type":"SCALAR"},{"bufferView":11,"componentType":5126,"count":42159,"max":[0.9127399325370789,1.8782570362091064,1.264732837677002],"min":[-0.926023006439209,-2.0562050342559814,0.1254420429468155],"type":"VEC3"},{"bufferView":12,"componentType":5126,"count":42159,"type":"VEC3"},{"bufferView":13,"componentType":5126,"count":42159,"type":"VEC2"},{"bufferView":14,"componentType":5126,"count":42159,"type":"VEC2"},{"bufferView":15,"componentType":5126,"count":42159,"type":"VEC2"},{"bufferView":16,"componentType":5126,"count":42159,"type":"VEC2"},{"bufferView":17,"componentType":5126,"count":42159,"type":"VEC2"},{"bufferView":18,"componentType":5126,"count":42159,"type":"VEC2"},{"bufferView":19,"componentType":5126,"count":42159,"type":"VEC2"},{"bufferView":20,"componentType":5126,"count":42159,"type":"VEC2"},{"bufferView":21,"componentType":5123,"count":175071,"type":"SCALAR"},{"bufferView":23,"componentType":5126,"count":2039,"max":[0.7974960803985596,1.7538009881973267,0.8922105431556702],"min":[-0.7974960803985596,-0.9425965547561646,0.5470389127731323],"type":"VEC3"},{"bufferView":24,"componentType":5126,"count":2039,"type":"VEC3"},{"bufferView":25,"componentType":5126,"count":2039,"type":"VEC2"},{"bufferView":26,"componentType":5126,"count":2039,"type":"VEC2"},{"bufferView":27,"componentType":5126,"count":2039,"type":"VEC2"},{"bufferView":28,"componentType":5126,"count":2039,"type":"VEC2"},{"bufferView":29,"componentType":5126,"count":2039,"type":"VEC2"},{"bufferView":30,"componentType":5126,"count":2039,"type":"VEC2"},{"bufferView":31,"componentType":5126,"count":2039,"type":"VEC2"},{"bufferView":32,"componentType":5126,"count":2039,"type":"VEC2"},{"bufferView":33,"componentType":5123,"count":9006,"type":"SCALAR"},{"bufferView":34,"componentType":5126,"count":2394,"max":[0.7359259724617004,1.7520149946212769,1.1942328214645386],"min":[-0.7359259724617004,-1.9138909578323364,0.4706205725669861],"type":"VEC3"},{"bufferView":35,"componentType":5126,"count":2394,"type":"VEC3"},{"bufferView":36,"componentType":5126,"count":2394,"type":"VEC2"},{"bufferView":37,"componentType":5126,"count":2394,"type":"VEC2"},{"bufferView":38,"componentType":5126,"count":2394,"type":"VEC2"},{"bufferView":39,"componentType":5126,"count":2394,"type":"VEC2"},{"bufferView":40,"componentType":5126,"count":2394,"type":"VEC2"},{"bufferView":41,"componentType":5126,"count":2394,"type":"VEC2"},{"bufferView":42,"componentType":5126,"count":2394,"type":"VEC2"},{"bufferView":43,"componentType":5126,"count":2394,"type":"VEC2"},{"bufferView":44,"componentType":5123,"count":11556,"type":"SCALAR"},{"bufferView":45,"componentType":5126,"count":9276,"max":[0.8968642950057983,1.7509809732437134,0.9072506427764893],"min":[-0.909949004650116,-1.9102250337600708,0.460562527179718],"type":"VEC3"},{"bufferView":46,"componentType":5126,"count":9276,"type":"VEC3"},{"bufferView":47,"componentType":5126,"count":9276,"type":"VEC2"},{"bufferView":48,"componentType":5126,"count":9276,"type":"VEC2"},{"bufferView":49,"componentType":5126,"count":9276,"type":"VEC2"},{"bufferView":50,"componentType":5126,"count":9276,"type":"VEC2"},{"bufferView":51,"componentType":5126,"count":9276,"type":"VEC2"},{"bufferView":52,"componentType":5126,"count":9276,"type":"VEC2"},{"bufferView":53,"componentType":5126,"count":9276,"type":"VEC2"},{"bufferView":54,"componentType":5126,"count":9276,"type":"VEC2"},{"bufferView":55,"componentType":5123,"count":27555,"type":"SCALAR"},{"bufferView":56,"componentType":5126,"count":7062,"max":[0.8013935089111328,1.8532530069351196,0.8857244849205017],"min":[-0.8016309142112732,-1.918779969215393,0.16441287100315094],"type":"VEC3"},{"bufferView":57,"componentType":5126,"count":7062,"type":"VEC3"},{"bufferView":58,"componentType":5126,"count":7062,"type":"VEC2"},{"bufferView":59,"componentType":5126,"count":7062,"type":"VEC2"},{"bufferView":60,"componentType":5126,"count":7062,"type":"VEC2"},{"bufferView":61,"componentType":5126,"count":7062,"type":"VEC2"},{"bufferView":62,"componentType":5126,"count":7062,"type":"VEC2"},{"bufferView":63,"componentType":5126,"count":7062,"type":"VEC2"},{"bufferView":64,"componentType":5126,"count":7062,"type":"VEC2"},{"bufferView":65,"componentType":5126,"count":7062,"type":"VEC2"},{"bufferView":66,"componentType":5123,"count":19515,"type":"SCALAR"}],"bufferViews":[{"buffer":0,"byteLength":789948,"byteOffset":0,"target":34962},{"buffer":0,"byteLength":789948,"byteOffset":789948,"target":34962},{"buffer":0,"byteLength":526632,"byteOffset":1579896,"target":34962},{"buffer":0,"byteLength":526632,"byteOffset":2106528,"target":34962},{"buffer":0,"byteLength":526632,"byteOffset":2633160,"target":34962},{"buffer":0,"byteLength":526632,"byteOffset":3159792,"target":34962},{"buffer":0,"byteLength":526632,"byteOffset":3686424,"target":34962},{"buffer":0,"byteLength":526632,"byteOffset":4213056,"target":34962},{"buffer":0,"byteLength":526632,"byteOffset":4739688,"target":34962},{"buffer":0,"byteLength":526632,"byteOffset":5266320,"target":34962},{"buffer":0,"byteLength":837924,"byteOffset":5792952,"target":34963},{"buffer":0,"byteLength":505908,"byteOffset":6630876,"target":34962},{"buffer":0,"byteLength":505908,"byteOffset":7136784,"target":34962},{"buffer":0,"byteLength":337272,"byteOffset":7642692,"target":34962},{"buffer":0,"byteLength":337272,"byteOffset":7979964,"target":34962},{"buffer":0,"byteLength":337272,"byteOffset":8317236,"target":34962},{"buffer":0,"byteLength":337272,"byteOffset":8654508,"target":34962},{"buffer":0,"byteLength":337272,"byteOffset":8991780,"target":34962},{"buffer":0,"byteLength":337272,"byteOffset":9329052,"target":34962},{"buffer":0,"byteLength":337272,"byteOffset":9666324,"target":34962},{"buffer":0,"byteLength":337272,"byteOffset":10003596,"target":34962},{"buffer":0,"byteLength":350142,"byteOffset":10340868,"target":34963},{"buffer":0,"byteLength":36183,"byteOffset":10691012},{"buffer":0,"byteLength":24468,"byteOffset":10727196,"target":34962},{"buffer":0,"byteLength":24468,"byteOffset":10751664,"target":34962},{"buffer":0,"byteLength":16312,"byteOffset":10776132,"target":34962},{"buffer":0,"byteLength":16312,"byteOffset":10792444,"target":34962},{"buffer":0,"byteLength":16312,"byteOffset":10808756,"target":34962},{"buffer":0,"byteLength":16312,"byteOffset":10825068,"target":34962},{"buffer":0,"byteLength":16312,"byteOffset":10841380,"target":34962},{"buffer":0,"byteLength":16312,"byteOffset":10857692,"target":34962},{"buffer":0,"byteLength":16312,"byteOffset":10874004,"target":34962},{"buffer":0,"byteLength":16312,"byteOffset":10890316,"target":34962},{"buffer":0,"byteLength":18012,"byteOffset":10906628,"target":34963},{"buffer":0,"byteLength":28728,"byteOffset":10924640,"target":34962},{"buffer":0,"byteLength":28728,"byteOffset":10953368,"target":34962},{"buffer":0,"byteLength":19152,"byteOffset":10982096,"target":34962},{"buffer":0,"byteLength":19152,"byteOffset":11001248,"target":34962},{"buffer":0,"byteLength":19152,"byteOffset":11020400,"target":34962},{"buffer":0,"byteLength":19152,"byteOffset":11039552,"target":34962},{"buffer":0,"byteLength":19152,"byteOffset":11058704,"target":34962},{"buffer":0,"byteLength":19152,"byteOffset":11077856,"target":34962},{"buffer":0,"byteLength":19152,"byteOffset":11097008,"target":34962},{"buffer":0,"byteLength":19152,"byteOffset":11116160,"target":34962},{"buffer":0,"byteLength":23112,"byteOffset":11135312,"target":34963},{"buffer":0,"byteLength":111312,"byteOffset":11158424,"target":34962},{"buffer":0,"byteLength":111312,"byteOffset":11269736,"target":34962},{"buffer":0,"byteLength":74208,"byteOffset":11381048,"target":34962},{"buffer":0,"byteLength":74208,"byteOffset":11455256,"target":34962},{"buffer":0,"byteLength":74208,"byteOffset":11529464,"target":34962},{"buffer":0,"byteLength":74208,"byteOffset":11603672,"target":34962},{"buffer":0,"byteLength":74208,"byteOffset":11677880,"target":34962},{"buffer":0,"byteLength":74208,"byteOffset":11752088,"target":34962},{"buffer":0,"byteLength":74208,"byteOffset":11826296,"target":34962},{"buffer":0,"byteLength":74208,"byteOffset":11900504,"target":34962},{"buffer":0,"byteLength":55110,"byteOffset":11974712,"target":34963},{"buffer":0,"byteLength":84744,"byteOffset":12029824,"target":34962},{"buffer":0,"byteLength":84744,"byteOffset":12114568,"target":34962},{"buffer":0,"byteLength":56496,"byteOffset":12199312,"target":34962},{"buffer":0,"byteLength":56496,"byteOffset":12255808,"target":34962},{"buffer":0,"byteLength":56496,"byteOffset":12312304,"target":34962},{"buffer":0,"byteLength":56496,"byteOffset":12368800,"target":34962},{"buffer":0,"byteLength":56496,"byteOffset":12425296,"target":34962},{"buffer":0,"byteLength":56496,"byteOffset":12481792,"target":34962},{"buffer":0,"byteLength":56496,"byteOffset":12538288,"target":34962},{"buffer":0,"byteLength":56496,"byteOffset":12594784,"target":34962},{"buffer":0,"byteLength":39030,"byteOffset":12651280,"target":34963}],"samplers":[{"magFilter":9729,"minFilter":9987}],"buffers":[{"byteLength":12690312}]}