{"asset":{"generator":"Khronos glTF Blender I/O v3.6.27","version":"2.0"},"extensionsUsed":["KHR_materials_clearcoat"],"scene":0,"scenes":[{"name":"Scene","nodes":[2]}],"nodes":[{"mesh":0,"name":"Wheel_FL_Silver_MAT_0","translation":[-0.4389123022556305,0.6806444525718689,-0.15977409482002258]},{"mesh":1,"name":"Wheel_FL_Tire_MAT_0","translation":[-0.4521048069000244,0.6849835515022278,-0.15666207671165466]},{"children":[0,1],"name":"Wheel_FL","rotation":[0.9264886379241943,-0.0023102581035345793,-0.0001390902471030131,0.3763156235218048],"scale":[1.0143924951553345,0.7632192969322205,0.7542819380760193],"translation":[0.4538537263870239,0.28833234310150146,-0.4482623338699341]}],"materials":[{"doubleSided":true,"extensions":{"KHR_materials_clearcoat":{"clearcoatFactor":1,"clearcoatRoughnessFactor":0.03999999910593033}},"name":"Silver_MAT.001","pbrMetallicRoughness":{"baseColorFactor":[0.800000011920929,0.800000011920929,0.800000011920929,1],"roughnessFactor":0.20000000298023224}},{"doubleSided":true,"name":"Tire_MAT.001","normalTexture":{"index":0},"pbrMetallicRoughness":{"baseColorTexture":{"index":1},"metallicFactor":0,"metallicRoughnessTexture":{"index":2}}}],"meshes":[{"name":"Wheel_FL_Silver_MAT_0.001","primitives":[{"attributes":{"POSITION":0,"NORMAL":1,"TEXCOORD_0":2},"indices":3,"material":0}]},{"name":"Wheel_FL_Tire_MAT_0.001","primitives":[{"attributes":{"POSITION":4,"NORMAL":5,"TEXCOORD_0":6,"TEXCOORD_1":7,"TEXCOORD_2":8},"indices":9,"material":1}]}],"textures":[{"sampler":0,"source":0},{"sampler":0,"source":1},{"sampler":0,"source":2}],"images":[{"bufferView":10,"mimeType":"image/png","name":"Image_3"},{"bufferView":11,"mimeType":"image/png","name":"Image_1"},{"bufferView":12,"mimeType":"image/png","name":"Image_2"}],"accessors":[{"bufferView":0,"componentType":5126,"count":13965,"max":[0.0791926309466362,0.27530941367149353,0.2747354507446289],"min":[-0.14531607925891876,-0.27342572808265686,-0.27314284443855286],"type":"VEC3"},{"bufferView":1,"componentType":5126,"count":13965,"type":"VEC3"},{"bufferView":2,"componentType":5126,"count":13965,"type":"VEC2"},{"bufferView":3,"componentType":5123,"count":41265,"type":"SCALAR"},{"bufferView":4,"componentType":5126,"count":4834,"max":[0.09526418149471283,0.37573593854904175,0.3803677260875702],"min":[-0.14831282198429108,-0.3827659487724304,-0.387126624584198],"type":"VEC3"},{"bufferView":5,"componentType":5126,"count":4834,"type":"VEC3"},{"bufferView":6,"componentType":5126,"count":4834,"type":"VEC2"},{"bufferView":7,"componentType":5126,"count":4834,"type":"VEC2"},{"bufferView":8,"componentType":5126,"count":4834,"type":"VEC2"},{"bufferView":9,"componentType":5123,"count":21504,"type":"SCALAR"}],"bufferViews":[{"buffer":0,"byteLength":167580,"byteOffset":0,"target":34962},{"buffer":0,"byteLength":167580,"byteOffset":167580,"target":34962},{"buffer":0,"byteLength":111720,"byteOffset":335160,"target":34962},{"buffer":0,"byteLength":82530,"byteOffset":446880,"target":34963},{"buffer":0,"byteLength":58008,"byteOffset":529412,"target":34962},{"buffer":0,"byteLength":58008,"byteOffset":587420,"target":34962},{"buffer":0,"byteLength":38672,"byteOffset":645428,"target":34962},{"buffer":0,"byteLength":38672,"byteOffset":684100,"target":34962},{"buffer":0,"byteLength":38672,"byteOffset":722772,"target":34962},{"buffer":0,"byteLength":43008,"byteOffset":761444,"target":34963},{"buffer":0,"byteLength":1460496,"byteOffset":804452},{"buffer":0,"byteLength":648409,"byteOffset":2264948},{"buffer":0,"byteLength":440334,"byteOffset":2913360}],"samplers":[{"magFilter":9729,"minFilter":9987}],"buffers":[{"byteLength":3353696}]}